<?xml version="1.0" encoding="utf-8"?>
<!-- Generator: Adobe Illustrator 19.1.0, SVG Export Plug-In . SVG Version: 6.00 Build 0)  -->
<svg version="1.1" id="Layer_1" xmlns="http://www.w3.org/2000/svg" xmlns:xlink="http://www.w3.org/1999/xlink" x="0px" y="0px"
	 viewBox="0 0 283.1 43.4" style="enable-background:new 0 0 283.1 43.4;" xml:space="preserve">
<style type="text/css">
	.st0{fill:url(#SVGID_1_);}
	.st1{fill:#F9FAFD;}
	.st2{fill:url(#SVGID_2_);}
</style>
<g>
	<g>
		<linearGradient id="SVGID_1_" gradientUnits="userSpaceOnUse" x1="30.707" y1="5.0014" x2="-0.8446" y2="36.553">
			<stop  offset="0" style="stop-color:#9A7A2C"/>
			<stop  offset="6.962359e-003" style="stop-color:#9C7B2C"/>
			<stop  offset="0.1746" style="stop-color:#B7942C"/>
			<stop  offset="0.3402" style="stop-color:#CAA52B"/>
			<stop  offset="0.5" style="stop-color:#D2AC2B"/>
			<stop  offset="0.6784" style="stop-color:#CBA62B"/>
			<stop  offset="0.8216" style="stop-color:#BC982C"/>
			<stop  offset="0.9522" style="stop-color:#A5842C"/>
			<stop  offset="1" style="stop-color:#9A7A2C"/>
		</linearGradient>
		<path class="st0" d="M29.8,11.7l-2.1,0.4c0,0,1.5-2.7,1.2-5.6c0,0-0.1-2.2-1.5-3.9C19.8-2.8,18.7,2,18.7,2c1.8-1.3,4-0.2,4.8,2.1
			c2,5.5-4.9,8.7-4.9,8.7l0.6-2.1c-9.1,7-10.4,10.7-10.4,10.7l0-2.1c0,0-7.9,7.2-8.6,14.4c-1,10.6,6.1,9.8,7.1,9.6c0,0,0.1,0,0.1,0
			c0.8,0,1.5-0.7,1.5-1.5c0-0.8-0.7-1.5-1.5-1.5c-0.8,0-1.5,0.6-1.5,1.5c0,0.4,0.2,0.8,0.5,1.1c-4.2,0.2-5.9-5.6,2.6-10
			c8.8-4.5,9-5.7,9-5.7L16.2,27c5.8-1.7,8.3-6.7,8.3-6.7l-2.2,0C26.4,18.6,29.8,11.7,29.8,11.7z"/>
		<path class="st1" d="M24.9,4.5c0,0,2.8,6.2-10.3,15.8C0.5,30.5,1.5,38.4,1.5,38.4s-0.5-6.9,13.7-17.6C28.6,10.8,24.9,4.5,24.9,4.5
			z"/>
	</g>
	<linearGradient id="SVGID_2_" gradientUnits="userSpaceOnUse" x1="287.0212" y1="42.654" x2="19.6278" y2="41.4932">
		<stop  offset="0" style="stop-color:#9A7A2C"/>
		<stop  offset="6.962359e-003" style="stop-color:#9C7B2C"/>
		<stop  offset="0.1746" style="stop-color:#B7942C"/>
		<stop  offset="0.3402" style="stop-color:#CAA52B"/>
		<stop  offset="0.5" style="stop-color:#D2AC2B"/>
		<stop  offset="0.6784" style="stop-color:#CBA62B"/>
		<stop  offset="0.8216" style="stop-color:#BC982C"/>
		<stop  offset="0.9522" style="stop-color:#A5842C"/>
		<stop  offset="1" style="stop-color:#9A7A2C"/>
	</linearGradient>
	<rect x="9.2" y="41.5" class="st2" width="273.9" height="1"/>
</g>
<g>
</g>
<g>
</g>
<g>
</g>
<g>
</g>
<g>
</g>
<g>
</g>
</svg>
