<?xml version="1.0" encoding="utf-8"?>
<!-- Generator: Adobe Illustrator 19.1.0, SVG Export Plug-In . SVG Version: 6.00 Build 0)  -->
<svg version="1.1" id="Layer_1" xmlns="http://www.w3.org/2000/svg" xmlns:xlink="http://www.w3.org/1999/xlink" x="0px" y="0px"
	 viewBox="0 0 29.8 44.2" style="enable-background:new 0 0 29.8 44.2;" xml:space="preserve">
<style type="text/css">
	.st0{fill:url(#SVGID_1_);}
	.st1{fill:url(#SVGID_2_);}
	.st2{fill:#F9FAFD;}
	.st3{fill:url(#SVGID_3_);}
</style>
<linearGradient id="SVGID_1_" gradientUnits="userSpaceOnUse" x1="10.5892" y1="41.0549" x2="10.5892" y2="41.0549">
	<stop  offset="8.466130e-002" style="stop-color:#98782E"/>
	<stop  offset="0.1009" style="stop-color:#9F7F30"/>
	<stop  offset="0.1577" style="stop-color:#B29233"/>
	<stop  offset="0.2248" style="stop-color:#C0A136"/>
	<stop  offset="0.3112" style="stop-color:#CAAB37"/>
	<stop  offset="0.4847" style="stop-color:#CEAE38"/>
	<stop  offset="0.6436" style="stop-color:#C8A937"/>
	<stop  offset="0.7821" style="stop-color:#BB9C35"/>
	<stop  offset="0.9126" style="stop-color:#A98932"/>
	<stop  offset="1" style="stop-color:#98782E"/>
</linearGradient>
<path class="st0" d="M10.6,41.1"/>
<linearGradient id="SVGID_2_" gradientUnits="userSpaceOnUse" x1="30.707" y1="5.7698" x2="-0.8446" y2="37.3214">
	<stop  offset="0" style="stop-color:#9A7A2C"/>
	<stop  offset="6.962359e-003" style="stop-color:#9C7B2C"/>
	<stop  offset="0.1746" style="stop-color:#B7942C"/>
	<stop  offset="0.3402" style="stop-color:#CAA52B"/>
	<stop  offset="0.5" style="stop-color:#D2AC2B"/>
	<stop  offset="0.6784" style="stop-color:#CBA62B"/>
	<stop  offset="0.8216" style="stop-color:#BC982C"/>
	<stop  offset="0.9522" style="stop-color:#A5842C"/>
	<stop  offset="1" style="stop-color:#9A7A2C"/>
</linearGradient>
<path class="st1" d="M29.8,12.4l-2.1,0.4c0,0,1.5-2.7,1.2-5.6c0,0-0.1-2.2-1.5-3.9c-7.6-5.4-8.6-0.6-8.6-0.6c1.8-1.3,4-0.2,4.8,2.1
	c2,5.5-4.9,8.7-4.9,8.7l0.6-2.1c-9.1,7-10.4,10.7-10.4,10.7l0-2.1c0,0-7.9,7.2-8.6,14.4c-1,10.6,6.1,9.8,7.1,9.6c0,0,0.1,0,0.1,0
	c0.8,0,1.5-0.7,1.5-1.5c0-0.8-0.7-1.5-1.5-1.5c-0.8,0-1.5,0.6-1.5,1.5c0,0.4,0.2,0.8,0.5,1.1c-4.2,0.2-5.9-5.6,2.6-10
	c8.8-4.5,9-5.7,9-5.7l-1.7-0.3c5.8-1.7,8.3-6.7,8.3-6.7l-2.2,0C26.4,19.4,29.8,12.4,29.8,12.4z"/>
<path class="st2" d="M24.9,5.2c0,0,2.8,6.2-10.3,15.8C0.5,31.3,1.5,39.1,1.5,39.1s-0.5-6.9,13.7-17.6C28.6,11.5,24.9,5.2,24.9,5.2z"
	/>
<linearGradient id="SVGID_3_" gradientUnits="userSpaceOnUse" x1="25.4724" y1="2.5873" x2="15.7389" y2="6.13">
	<stop  offset="0.5" style="stop-color:#D2AC2B"/>
	<stop  offset="0.6784" style="stop-color:#CBA62B"/>
	<stop  offset="0.8216" style="stop-color:#BC982C"/>
	<stop  offset="0.9522" style="stop-color:#A5842C"/>
	<stop  offset="1" style="stop-color:#9A7A2C"/>
</linearGradient>
<path class="st3" d="M28.5,5.6c0,0-1.2-4.9-7.1-5.5c-5.9-0.6-8.5,6.3-4.4,8.2C19.5,9.4,21.6,7,21.6,7c-0.6,0.1-3.7,0.5-3.7-2.2
	c0-2,1.8-3.1,4-3.1c2.8,0,5.7,1.8,6.8,4.4"/>
<g>
</g>
<g>
</g>
<g>
</g>
<g>
</g>
<g>
</g>
<g>
</g>
</svg>
